<svg width="552" height="514" viewBox="0 0 552 514" fill="none" xmlns="http://www.w3.org/2000/svg">
<path d="M281.496 500.349C281.629 511.49 336.478 511.463 364.32 511.146C390.52 510.847 442.013 509.568 442.003 499.213C441.994 489.619 383.043 492.787 353.467 493.246C329.362 493.621 281.405 492.637 281.496 500.349V500.349Z" fill="black" fill-opacity="0.05"/>
<path d="M385.527 470.321C378.098 474.639 374.385 487.742 378.773 495.105C383.61 503.221 398.364 506.663 406.441 501.717C413.665 497.293 416.681 484.291 412.281 477.076C407.508 469.251 393.471 465.704 385.527 470.321V470.321ZM399.826 460.073C415.871 460.179 428.149 446.833 434.233 431.537C439.678 417.845 437.41 396.996 428.521 383.522C418.549 368.408 400.522 356.317 381.397 356.247C351.809 356.139 331.535 356.066 303.428 355.963C297.982 349.66 289.073 348.956 281.437 349.428C273.651 349.91 260.217 351.785 260.017 358.804C259.851 364.637 275.03 367.051 284.507 368.038V368.038L296.718 432.29C297.895 438.484 308.879 459.472 330.04 459.612C353.302 459.766 376.564 459.919 399.826 460.073V460.073ZM322.024 471.056C314.962 476.27 312.896 489.996 318.144 497.017C323.703 504.453 338.364 506.597 345.801 501.015C352.807 495.756 354.59 482.03 349.31 475.056C343.78 467.75 329.407 465.606 322.024 471.056V471.056ZM299.063 370.198L379.398 370.203C392.497 371.236 404.769 376.053 415.184 389.365C421.006 398.544 424.557 408.911 420.221 423.408C415.548 435.997 407.326 444.886 391.38 445.726L335.143 445.675C317.4 444.204 310.957 431.349 309.359 423.131L299.063 370.198Z" fill="url(#paint0_linear)"/>
<path d="M202.028 317.171C202.297 339.924 313.937 339.869 370.607 339.221C423.933 338.611 528.743 335.999 528.723 314.85C528.705 295.257 408.716 301.726 348.517 302.665C299.454 303.43 201.841 301.42 202.028 317.171V317.171Z" fill="black" fill-opacity="0.05"/>
<path d="M413.779 255.843C398.657 264.662 391.1 291.424 400.032 306.461C409.877 323.037 439.906 330.065 456.347 319.964C471.051 310.93 477.189 284.375 468.233 269.64C458.519 253.659 429.948 246.414 413.779 255.843V255.843ZM442.882 234.913C475.54 235.129 500.531 207.874 512.913 176.634C523.997 148.67 519.381 106.089 501.287 78.5717C480.99 47.7042 444.299 23.01 405.371 22.8676C345.149 22.6473 303.884 22.4967 246.674 22.2873C235.59 9.41427 217.455 7.97653 201.913 8.94148C186.067 9.92532 158.722 13.7533 158.315 28.0897C157.977 40.0014 188.873 44.9316 208.162 46.948V46.948L233.016 178.172C235.412 190.821 257.769 233.687 300.839 233.972C348.187 234.286 395.535 234.599 442.882 234.913V234.913ZM284.524 257.346C270.15 267.994 265.945 296.027 276.627 310.365C287.942 325.552 317.784 329.931 332.92 318.531C347.18 307.791 350.808 279.758 340.062 265.514C328.806 250.592 299.551 246.214 284.524 257.346V257.346ZM237.79 51.3586L401.303 51.3699C427.964 53.4804 452.942 63.3172 474.142 90.5057C485.991 109.252 493.221 130.425 484.395 160.033C474.883 185.742 458.147 203.896 425.691 205.612L311.227 205.508C275.113 202.504 261.999 176.25 258.746 159.467L237.79 51.3586Z" fill="url(#paint1_linear)"/>
<path d="M40.5002 412.593C40.677 427.506 113.971 427.47 151.176 427.045C186.186 426.645 254.996 424.934 254.983 411.072C254.971 398.229 176.196 402.47 136.674 403.085C104.463 403.586 40.3777 402.269 40.5002 412.593V412.593Z" fill="black" fill-opacity="0.05"/>
<path d="M179.516 372.396C169.588 378.176 164.627 395.717 170.491 405.573C176.955 416.438 196.669 421.044 207.463 414.423C217.116 408.502 221.146 391.097 215.266 381.439C208.889 370.964 190.132 366.216 179.516 372.396V372.396ZM198.623 358.678C220.064 358.819 236.471 340.955 244.6 320.479C251.877 302.151 248.846 274.241 236.967 256.205C223.642 235.973 199.553 219.788 173.996 219.694C134.459 219.55 107.368 219.451 69.8082 219.314C62.5313 210.877 50.6252 209.934 40.4218 210.567C30.0181 211.212 12.0659 213.721 11.7987 223.117C11.5766 230.925 31.8607 234.156 44.5245 235.478V235.478L60.8415 321.487C62.4144 329.778 77.0925 357.874 105.369 358.061C136.454 358.267 167.538 358.472 198.623 358.678V358.678ZM94.6578 373.381C85.2209 380.36 82.4599 398.734 89.4726 408.132C96.9012 418.086 116.493 420.956 126.43 413.484C135.792 406.445 138.174 388.071 131.12 378.734C123.73 368.954 104.523 366.085 94.6578 373.381V373.381ZM63.9755 238.369L171.326 238.376C188.829 239.759 205.228 246.207 219.145 264.027C226.925 276.314 231.671 290.192 225.877 309.598C219.633 326.449 208.645 338.348 187.336 339.473L112.188 339.404C88.4788 337.436 79.8694 320.227 77.7335 309.227L63.9755 238.369Z" fill="url(#paint2_linear)"/>
<defs>
<linearGradient id="paint0_linear" x1="280.8" y1="350.004" x2="411.016" y2="497.022" gradientUnits="userSpaceOnUse">
<stop stop-color="#1C4964"/>
<stop offset="1" stop-color="#79878F"/>
</linearGradient>
<linearGradient id="paint1_linear" x1="200.618" y1="10.1162" x2="466.669" y2="309.478" gradientUnits="userSpaceOnUse">
<stop stop-color="#1C4964"/>
<stop offset="1" stop-color="#79878F"/>
</linearGradient>
<linearGradient id="paint2_linear" x1="39.5712" y1="211.337" x2="213.918" y2="407.836" gradientUnits="userSpaceOnUse">
<stop stop-color="#1C4964"/>
<stop offset="1" stop-color="#79878F"/>
</linearGradient>
</defs>
</svg>
