<svg width="250" height="91" viewBox="0 0 250 91" fill="none" xmlns="http://www.w3.org/2000/svg">
<path d="M117.412 18.496C117.124 18.616 116.8 18.676 116.44 18.676C116.104 18.676 115.876 18.664 115.756 18.64C115.42 17.08 114.82 15.772 113.956 14.716H105.676V23.68L111.256 23.284C112.288 23.212 113.008 22.36 113.416 20.728H114.64V28.288H113.416C113.056 26.488 112.324 25.552 111.22 25.48L105.676 25.084V34.804H114.892C115.756 33.652 116.368 32.2 116.728 30.448C117.064 30.4 117.304 30.376 117.448 30.376C117.592 30.376 117.88 30.4 118.312 30.448L117.952 37H98.548L98.764 35.56C100.468 35.368 101.632 35.032 102.256 34.552V15.112C101.392 14.632 100.156 14.296 98.548 14.104L98.728 12.664H117.088L117.412 18.496ZM123.669 23.536C123.669 22.576 123.465 21.928 123.057 21.592C122.673 21.232 121.977 21.028 120.969 20.98L121.077 19.828C121.605 19.732 123.189 19.3 125.829 18.532L126.513 18.892L126.873 21.304C128.217 19.456 129.873 18.532 131.841 18.532C133.809 18.532 135.321 19.012 136.377 19.972C137.433 20.908 137.961 22.216 137.961 23.896V34.624C138.561 35.08 139.461 35.428 140.661 35.668L140.517 37H131.985L132.093 35.668C133.053 35.524 133.905 35.176 134.649 34.624V24.256C134.649 21.688 133.545 20.404 131.337 20.404C130.449 20.404 129.597 20.704 128.781 21.304C127.965 21.904 127.365 22.684 126.981 23.644V34.624C127.629 35.104 128.529 35.452 129.681 35.668L129.537 37H120.969L121.113 35.596C122.145 35.428 122.997 35.104 123.669 34.624V23.536ZM145.044 32.5V20.8H141.876V19.72C144.42 18.856 146.076 17.284 146.844 15.004H148.392V18.784H152.784V20.8H148.356V32.788C148.356 33.748 148.464 34.432 148.68 34.84C148.896 35.248 149.388 35.452 150.156 35.452C150.924 35.452 151.728 35.2 152.568 34.696L153.324 35.848C152.124 36.808 150.732 37.288 149.148 37.288C147.564 37.288 146.484 36.928 145.908 36.208C145.332 35.464 145.044 34.228 145.044 32.5ZM158.055 23.536C158.055 22.576 157.851 21.928 157.443 21.592C157.059 21.232 156.363 21.028 155.355 20.98L155.463 19.828C155.991 19.732 157.575 19.3 160.215 18.532L160.899 18.892L161.295 21.592C162.663 19.552 164.211 18.532 165.939 18.532C166.875 18.532 167.679 18.808 168.351 19.36C169.047 19.912 169.395 20.608 169.395 21.448C169.395 22.264 169.203 22.912 168.819 23.392C168.459 23.872 168.003 24.112 167.451 24.112C166.923 24.112 166.467 24.004 166.083 23.788C165.699 23.572 165.459 23.284 165.363 22.924C165.627 22.66 165.759 22.3 165.759 21.844C165.759 21.052 165.387 20.656 164.643 20.656C163.899 20.656 163.167 21.208 162.447 22.312C161.727 23.416 161.367 24.58 161.367 25.804V34.624C162.087 35.104 163.107 35.452 164.427 35.668L164.283 37H155.355L155.499 35.596C156.531 35.428 157.383 35.104 158.055 34.624V23.536ZM174.955 27.604V28.18C174.955 31.156 175.351 33.16 176.143 34.192C176.887 35.152 178.099 35.632 179.779 35.632C181.483 35.632 182.935 34.924 184.135 33.508L185.359 34.732C183.895 36.436 181.927 37.288 179.455 37.288C176.551 37.288 174.475 36.484 173.227 34.876C172.003 33.268 171.391 30.964 171.391 27.964C171.391 24.964 172.063 22.648 173.407 21.016C174.751 19.36 176.695 18.532 179.239 18.532C181.783 18.532 183.559 19.204 184.567 20.548C185.575 21.892 186.115 23.896 186.187 26.56L185.395 27.604H174.955ZM179.167 20.116C176.431 20.116 175.027 22.132 174.955 26.164L182.695 25.876C182.695 23.86 182.443 22.396 181.939 21.484C181.435 20.572 180.511 20.116 179.167 20.116ZM189.511 25.012C189.511 20.692 191.887 18.532 196.639 18.532C198.367 18.532 199.795 18.844 200.923 19.468C201.883 19.18 202.363 18.676 202.363 17.956C202.363 17.38 202.003 16.912 201.283 16.552C201.283 16.168 201.451 15.856 201.787 15.616C202.123 15.376 202.567 15.256 203.119 15.256C203.695 15.256 204.163 15.436 204.523 15.796C204.883 16.132 205.063 16.588 205.063 17.164C205.063 18.748 204.151 19.876 202.327 20.548C203.287 21.652 203.767 23.152 203.767 25.048C203.767 26.92 203.131 28.42 201.859 29.548C200.587 30.676 198.847 31.24 196.639 31.24H196.099L194.119 33.652C194.143 34.228 194.371 34.624 194.803 34.84C195.259 35.056 195.967 35.176 196.927 35.2H198.547C200.947 35.2 202.699 35.656 203.803 36.568C204.931 37.48 205.495 38.644 205.495 40.06C205.495 43.66 202.759 45.46 197.287 45.46C194.551 45.46 192.487 45.016 191.095 44.128C189.727 43.264 189.043 42.124 189.043 40.708C189.043 39.316 189.259 38.308 189.691 37.684C190.123 37.084 190.903 36.472 192.031 35.848C191.455 35.224 191.167 34.372 191.167 33.292L194.371 31.024C192.835 30.664 191.635 29.956 190.771 28.9C189.931 27.844 189.511 26.548 189.511 25.012ZM193.867 28.54C194.443 29.284 195.367 29.656 196.639 29.656C197.911 29.656 198.823 29.284 199.375 28.54C199.951 27.796 200.239 26.584 200.239 24.904C200.239 23.224 199.951 22 199.375 21.232C198.823 20.464 197.911 20.08 196.639 20.08C195.367 20.08 194.443 20.464 193.867 21.232C193.315 22 193.039 23.224 193.039 24.904C193.039 26.584 193.315 27.796 193.867 28.54ZM197.647 37H194.335C193.159 37.792 192.571 38.812 192.571 40.06C192.571 42.604 194.131 43.876 197.251 43.876C200.395 43.876 201.967 42.604 201.967 40.06C201.967 38.02 200.527 37 197.647 37ZM212.927 37.288C211.391 37.288 210.191 36.904 209.327 36.136C208.487 35.344 208.067 34.18 208.067 32.644C208.067 31.084 208.655 29.824 209.831 28.864C211.031 27.904 212.771 27.34 215.051 27.172L218.111 26.956V23.788C218.111 22.492 217.847 21.556 217.319 20.98C216.815 20.38 215.999 20.08 214.871 20.08C212.831 20.08 211.811 20.668 211.811 21.844C211.811 22.492 212.207 22.972 212.999 23.284C212.999 24.508 212.255 25.12 210.767 25.12C210.095 25.12 209.555 24.916 209.147 24.508C208.739 24.1 208.535 23.56 208.535 22.888C208.535 21.544 209.099 20.488 210.227 19.72C211.379 18.928 212.951 18.532 214.943 18.532C216.959 18.532 218.543 19 219.695 19.936C220.847 20.848 221.423 22.132 221.423 23.788V34.624C222.023 35.08 222.923 35.428 224.123 35.668L223.979 37H218.615L218.219 35.272C216.803 36.616 215.039 37.288 212.927 37.288ZM211.487 32.5C211.487 34.612 212.303 35.668 213.935 35.668C215.231 35.668 216.623 34.924 218.111 33.436V28.54L215.195 28.792C214.043 28.888 213.131 29.272 212.459 29.944C211.811 30.616 211.487 31.468 211.487 32.5ZM229.661 35.128C230.549 35.392 231.509 35.524 232.541 35.524C233.573 35.524 234.413 35.236 235.061 34.66C235.709 34.06 236.033 33.364 236.033 32.572C236.033 31.78 235.793 31.144 235.313 30.664C234.857 30.16 234.281 29.8 233.585 29.584C232.889 29.344 232.121 29.068 231.281 28.756C230.465 28.444 229.709 28.12 229.013 27.784C228.317 27.448 227.729 26.908 227.249 26.164C226.793 25.396 226.565 24.472 226.565 23.392C226.565 21.928 227.141 20.764 228.293 19.9C229.469 19.012 230.945 18.568 232.721 18.568C234.521 18.568 235.997 18.94 237.149 19.684C238.301 20.404 238.877 21.292 238.877 22.348C238.877 23.692 238.277 24.364 237.077 24.364C236.165 24.364 235.481 24.016 235.025 23.32C235.433 22.984 235.637 22.54 235.637 21.988C235.637 21.412 235.349 20.956 234.773 20.62C234.221 20.284 233.489 20.116 232.577 20.116C231.689 20.116 230.945 20.356 230.345 20.836C229.769 21.292 229.481 21.94 229.481 22.78C229.481 23.62 229.805 24.316 230.453 24.868C231.125 25.42 231.929 25.852 232.865 26.164C233.801 26.452 234.737 26.776 235.673 27.136C236.633 27.472 237.437 28.024 238.085 28.792C238.757 29.56 239.093 30.532 239.093 31.708C239.093 33.46 238.493 34.816 237.293 35.776C236.093 36.736 234.401 37.216 232.217 37.216C231.329 37.216 230.297 37.072 229.121 36.784C227.969 36.472 227.105 36.124 226.529 35.74V30.952L228.617 30.7C228.785 32.668 229.133 34.144 229.661 35.128ZM109.744 77.252C105.928 77.252 103.132 76.256 101.356 74.264C99.604 72.272 98.728 69.152 98.728 64.904C98.728 56.6 102.4 52.448 109.744 52.448C112.624 52.448 114.808 53.156 116.296 54.572C117.112 55.364 117.52 56.264 117.52 57.272C117.52 58.28 117.292 59.072 116.836 59.648C116.404 60.224 115.9 60.512 115.324 60.512C114.772 60.512 114.28 60.38 113.848 60.116C113.44 59.828 113.176 59.456 113.056 59C113.536 58.304 113.776 57.596 113.776 56.876C113.776 56.132 113.404 55.544 112.66 55.112C111.94 54.656 110.98 54.428 109.78 54.428C107.212 54.428 105.364 55.256 104.236 56.912C103.108 58.544 102.544 61.208 102.544 64.904C102.544 68.6 103.096 71.252 104.2 72.86C105.304 74.468 107.152 75.272 109.744 75.272C110.584 75.272 111.472 75.104 112.408 74.768C114.208 74.096 115.468 72.764 116.188 70.772L117.988 71.42C117.604 72.452 117.088 73.364 116.44 74.156C115.792 74.924 115.156 75.5 114.532 75.884C113.908 76.268 113.224 76.568 112.48 76.784C111.424 77.096 110.512 77.252 109.744 77.252ZM125.529 77.288C123.993 77.288 122.793 76.904 121.929 76.136C121.089 75.344 120.669 74.18 120.669 72.644C120.669 71.084 121.257 69.824 122.433 68.864C123.633 67.904 125.373 67.34 127.653 67.172L130.713 66.956V63.788C130.713 62.492 130.449 61.556 129.921 60.98C129.417 60.38 128.601 60.08 127.473 60.08C125.433 60.08 124.413 60.668 124.413 61.844C124.413 62.492 124.809 62.972 125.601 63.284C125.601 64.508 124.857 65.12 123.369 65.12C122.697 65.12 122.157 64.916 121.749 64.508C121.341 64.1 121.137 63.56 121.137 62.888C121.137 61.544 121.701 60.488 122.829 59.72C123.981 58.928 125.553 58.532 127.545 58.532C129.561 58.532 131.145 59 132.297 59.936C133.449 60.848 134.025 62.132 134.025 63.788V74.624C134.625 75.08 135.525 75.428 136.725 75.668L136.581 77H131.217L130.821 75.272C129.405 76.616 127.641 77.288 125.529 77.288ZM124.089 72.5C124.089 74.612 124.905 75.668 126.537 75.668C127.833 75.668 129.225 74.924 130.713 73.436V68.54L127.797 68.792C126.645 68.888 125.733 69.272 125.061 69.944C124.413 70.616 124.089 71.468 124.089 72.5ZM141.11 63.536C141.11 62.576 140.906 61.928 140.498 61.592C140.114 61.232 139.418 61.028 138.41 60.98L138.518 59.828C139.046 59.732 140.63 59.3 143.27 58.532L143.954 58.892L144.35 61.592C145.718 59.552 147.266 58.532 148.994 58.532C149.93 58.532 150.734 58.808 151.406 59.36C152.102 59.912 152.45 60.608 152.45 61.448C152.45 62.264 152.258 62.912 151.874 63.392C151.514 63.872 151.058 64.112 150.506 64.112C149.978 64.112 149.522 64.004 149.138 63.788C148.754 63.572 148.514 63.284 148.418 62.924C148.682 62.66 148.814 62.3 148.814 61.844C148.814 61.052 148.442 60.656 147.698 60.656C146.954 60.656 146.222 61.208 145.502 62.312C144.782 63.416 144.422 64.58 144.422 65.804V74.624C145.142 75.104 146.162 75.452 147.482 75.668L147.338 77H138.41L138.554 75.596C139.586 75.428 140.438 75.104 141.11 74.624V63.536ZM156.966 63.464C156.966 62.504 156.762 61.856 156.354 61.52C155.97 61.16 155.274 60.956 154.266 60.908L154.374 59.756C155.358 59.588 157.074 59.144 159.522 58.424L160.278 58.82V74.624C160.926 75.104 161.826 75.452 162.978 75.668L162.834 77H154.266L154.41 75.596C155.442 75.428 156.294 75.104 156.966 74.624V63.464ZM160.458 53.42C160.458 54.908 159.774 55.652 158.406 55.652C157.062 55.652 156.39 54.908 156.39 53.42C156.39 51.908 157.062 51.152 158.406 51.152C159.774 51.152 160.458 51.908 160.458 53.42ZM167.723 63.536C167.723 62.576 167.519 61.928 167.111 61.592C166.727 61.232 166.031 61.028 165.023 60.98L165.131 59.828C165.659 59.732 167.243 59.3 169.883 58.532L170.567 58.892L170.963 61.592C172.331 59.552 173.879 58.532 175.607 58.532C176.543 58.532 177.347 58.808 178.019 59.36C178.715 59.912 179.063 60.608 179.063 61.448C179.063 62.264 178.871 62.912 178.487 63.392C178.127 63.872 177.671 64.112 177.119 64.112C176.591 64.112 176.135 64.004 175.751 63.788C175.367 63.572 175.127 63.284 175.031 62.924C175.295 62.66 175.427 62.3 175.427 61.844C175.427 61.052 175.055 60.656 174.311 60.656C173.567 60.656 172.835 61.208 172.115 62.312C171.395 63.416 171.035 64.58 171.035 65.804V74.624C171.755 75.104 172.775 75.452 174.095 75.668L173.951 77H165.023L165.167 75.596C166.199 75.428 167.051 75.104 167.723 74.624V63.536ZM183.579 63.464C183.579 62.504 183.375 61.856 182.967 61.52C182.583 61.16 181.887 60.956 180.879 60.908L180.987 59.756C181.971 59.588 183.687 59.144 186.135 58.424L186.891 58.82V74.624C187.539 75.104 188.439 75.452 189.591 75.668L189.447 77H180.879L181.023 75.596C182.055 75.428 182.907 75.104 183.579 74.624V63.464ZM187.071 53.42C187.071 54.908 186.387 55.652 185.019 55.652C183.675 55.652 183.003 54.908 183.003 53.42C183.003 51.908 183.675 51.152 185.019 51.152C186.387 51.152 187.071 51.908 187.071 53.42Z" fill="#0E3F5D"/>
<path d="M12.4493 74.4249C12.5036 78.9748 35.038 78.9638 46.4767 78.8342C57.2406 78.7123 78.3962 78.19 78.3921 73.9608C78.3885 70.0427 54.169 71.3364 42.018 71.5241C32.1146 71.6771 12.4116 71.2753 12.4493 74.4249Z" fill="black" fill-opacity="0.05"/>
<path d="M55.1943 62.1612C52.142 63.9246 50.6167 69.2762 52.4195 72.2832C54.4068 75.598 60.4681 77.0034 63.7867 74.9834C66.7546 73.1768 67.9936 67.8666 66.1858 64.9202C64.2251 61.7243 58.4581 60.2755 55.1943 62.1612ZM61.0688 57.9757C67.6608 58.019 72.7051 52.5688 75.2045 46.3216C77.4417 40.7297 76.51 32.2148 72.8577 26.712C68.7609 20.5394 61.3547 15.6013 53.4973 15.5728C41.3415 15.5288 33.0122 15.4987 21.4645 15.4568C19.2273 12.8826 15.5667 12.5951 12.4297 12.788C9.23105 12.9848 3.71163 13.7503 3.62946 16.6171C3.56119 18.9991 9.79755 19.985 13.691 20.3882V20.3882L18.7077 46.6291C19.1913 49.1586 23.7041 57.7306 32.3976 57.7876C41.9547 57.8504 51.5118 57.913 61.0688 57.9757ZM29.1046 62.4616C26.2032 64.5909 25.3543 70.1968 27.5104 73.0638C29.7943 76.1009 35.8179 76.9765 38.8731 74.6968C41.7514 72.5491 42.4838 66.9434 40.3148 64.0949C38.0428 61.1111 32.1376 60.2356 29.1046 62.4616ZM19.6713 21.2702L52.6762 21.2725C58.0576 21.6945 63.0994 23.6616 67.3784 29.0985C69.7703 32.8471 71.2295 37.0812 69.4481 43.0019C67.5282 48.143 64.15 51.7733 57.5987 52.1164L34.4944 52.0955C27.2048 51.4949 24.5579 46.2448 23.9012 42.8887L19.6713 21.2702Z" fill="url(#paint0_linear)"/>
<defs>
<linearGradient id="paint0_linear" x1="12.1681" y1="13.0229" x2="65.3099" y2="73.3797" gradientUnits="userSpaceOnUse">
<stop stop-color="#1C4964"/>
<stop offset="1" stop-color="#79878F"/>
</linearGradient>
</defs>
</svg>
