<svg width="276" height="163" viewBox="0 0 276 163" fill="none" xmlns="http://www.w3.org/2000/svg">
<path d="M100 23.0188C100 30.0188 97.9 35.4188 93.7 39.2188C89.5 43.0188 84.1 44.9188 77.5 44.9188C71.1 44.9188 65.7 43.0188 61.3 39.2188C56.9 35.4188 54.7 29.7188 54.7 22.1188C54.7 15.1188 56.9 9.71875 61.3 5.91875C65.7 2.31875 70.9 0.518752 76.9 0.518752C83.3 0.518752 88.7 2.41875 93.1 6.21875C97.7 10.0188 100 15.6188 100 23.0188ZM211 23.0188C211 30.0188 208.9 35.4188 204.7 39.2188C200.5 43.0188 195.1 44.9188 188.5 44.9188C182.1 44.9188 176.7 43.0188 172.3 39.2188C167.9 35.4188 165.7 29.7188 165.7 22.1188C165.7 15.1188 167.9 9.71875 172.3 5.91875C176.7 2.31875 181.8 0.518752 187.6 0.518752C194.2 0.518752 199.7 2.41875 204.1 6.21875C208.7 10.0188 211 15.6188 211 23.0188ZM138.7 162.838C119.1 162.838 101.6 160.538 86.2 155.938C70.8 151.538 57.4 146.038 46 139.438C34.6 132.838 25.2 125.838 17.8 118.438C10.2 111.238 4.5 104.938 0.699996 99.5375L21.1 81.2375C24.7 85.6375 29.8 90.6375 36.4 96.2375C43 101.838 51.1 107.038 60.7 111.838C70.3 116.838 81.5 120.938 94.3 124.138C107.3 127.538 122 129.238 138.4 129.238C154.6 129.238 169.1 127.538 181.9 124.138C194.7 120.738 205.9 116.538 215.5 111.538C225.3 106.738 233.5 101.538 240.1 95.9375C246.7 90.5375 251.8 85.6375 255.4 81.2375L275.8 99.5375C272 104.938 266.3 111.238 258.7 118.438C251.3 125.838 241.9 132.838 230.5 139.438C219.1 146.038 205.8 151.538 190.6 155.938C175.4 160.538 158.1 162.838 138.7 162.838Z" fill="url(#paint0_linear)"/>
<defs>
<linearGradient id="paint0_linear" x1="319" y1="74" x2="19" y2="74" gradientUnits="userSpaceOnUse">
<stop stop-color="#0E3F5D"/>
<stop offset="1" stop-color="#33769F"/>
</linearGradient>
</defs>
</svg>
